Coordinates
version=1
nRows=9
nColumns=36
inDegrees=yes

Units are S.I. units (second, meters, Newtons, ...)
If the header above contains a line with 'inDegrees', this indicates whether rotational values are in degrees (yes) or radians (no).

endheader
time	pelvis_tilt	pelvis_list	pelvis_rotation	pelvis_tx	pelvis_ty	pelvis_tz	hip_flexion_r	hip_adduction_r	hip_rotation_r	knee_angle_r	knee_angle_r_beta	ankle_angle_r	subtalar_angle_r	mtp_angle_r	hip_flexion_l	hip_adduction_l	hip_rotation_l	knee_angle_l	knee_angle_l_beta	ankle_angle_l	subtalar_angle_l	mtp_angle_l	lumbar_extension	lumbar_bending	lumbar_rotation	arm_flex_r	arm_add_r	arm_rot_r	elbow_flex_r	pro_sup_r	arm_flex_l	arm_add_l	arm_rot_l	elbow_flex_l	pro_sup_l
      7.48333330	    -13.57373917	      1.79741886	      3.88981288	      0.40761462	      0.58968408	      0.03363938	     78.85156397	      0.32356859	      0.46885170	    114.26991134	      1.99438619	     40.47603224	     -7.81573341	     -7.49999987	     77.82831482	      5.31697205	     -4.15040721	    114.04962838	      1.99054153	     36.24278599	    -25.36690296	     -7.49999987	    -39.32473382	      1.66946943	      5.96461244	     35.69162117	    -22.09248996	     32.10167184	     32.64112155	     60.94196758	     25.18526437	    -19.94078089	     29.38354014	     45.06812280	     68.09907396
      7.50000000	    -13.49011047	      1.89961050	      3.65774601	      0.40864271	      0.60518633	      0.03441622	     76.96402144	      0.32083064	      0.23402821	    111.90445077	      1.95310111	     39.31811173	     -7.94757683	     -7.49999987	     75.84110008	      5.21306037	     -3.75155089	    111.78691967	      1.95104981	     35.35081430	    -24.92472973	     -7.49999987	    -37.94526583	      1.26535591	      6.00137116	     34.93029925	    -22.92105518	     32.21940861	     34.19020818	     61.37521450	     24.34961676	    -22.09643207	     29.14811190	     45.97420912	     67.78135333
      7.51666670	    -13.71045005	      1.96528122	      3.38500167	      0.41176306	      0.62030734	      0.03621589	     75.15561088	      0.22480858	     -0.03433933	    109.21365777	      1.90613792	     38.61375758	     -7.50502890	     -7.49999987	     74.07019281	      5.06646970	     -3.27133570	    109.24712304	      1.90672200	     34.68237592	    -24.29245061	     -7.49999987	    -35.20220136	      0.84774132	      6.20765574	     33.45599510	    -23.48190178	     32.34895067	     34.53101125	     61.47687481	     23.12012293	    -24.04859601	     28.95087578	     46.03306414	     67.71665408
      7.53333330	    -12.32240019	      2.06165703	      3.14648434	      0.41966445	      0.64580174	      0.04032064	     70.68912238	      0.35387203	     -0.31757909	    105.50430863	      1.84139756	     37.16181314	     -8.04216935	     -7.49999987	     69.72435731	      4.73923765	     -2.65685322	    105.94458713	      1.84908187	     33.66954100	    -23.49818616	     -7.49999987	    -34.67801222	      0.39399706	      6.16228016	     31.48836362	    -24.86256648	     32.13082515	     38.98287290	     62.25625981	     20.72422683	    -27.46462463	     28.26281695	     50.73572015	     67.39652417
      7.55000000	    -11.94817891	      2.19311668	      2.97960908	      0.41959348	      0.66389483	      0.03970573	     67.73404726	      0.01252729	     -0.62587410	    101.85191447	      1.77765126	     35.81669790	     -8.33225906	     -7.49999987	     66.95704076	      4.72078794	     -2.31966759	    102.47898863	      1.78859577	     32.74381285	    -22.86650965	     -7.49999987	    -32.24896829	     -0.08538001	      6.21140584	     28.51795664	    -26.39908841	     32.09510312	     43.05026211	     63.29531536	     17.34096187	    -30.83943725	     27.47444513	     56.28336532	     67.24868206
      7.56666670	    -11.18100821	      2.28029511	      2.78411925	      0.43077027	      0.68974341	      0.03842935	     63.60100860	     -0.52884791	     -1.06059450	     97.42405507	      1.70037053	     34.70530669	     -7.96547913	     -7.49999987	     62.88353292	      4.81555759	     -1.89891521	     98.05177853	      1.71132637	     31.25109032	    -22.58853346	     -7.49999987	    -29.77358778	     -0.20858435	      6.21303494	     24.91825614	    -27.94234184	     32.08568597	     47.14134429	     64.64201542	     13.01958028	    -33.95513277	     26.53855947	     62.46150183	     67.33395576
      7.58333330	    -10.43856189	      2.51139311	      2.64970483	      0.43447463	      0.71349962	      0.03699386	     59.19652075	     -1.21539199	     -1.46125121	     92.35551567	      1.61190783	     33.64383703	     -7.95279353	     -7.49999987	     58.94409218	      4.97149592	     -1.85157923	     93.34543769	      1.62918523	     30.37555791	    -21.86326455	     -7.49999987	    -27.35182944	     -0.44441602	      5.86470436	     20.94717556	    -29.49899995	     31.68361219	     52.53320593	     68.00093441	      6.73381811	    -36.57944100	     22.27621023	     71.16334067	     68.13116216
      7.60000000	    -10.18718575	      2.35775074	      2.28410041	      0.44016865	      0.73351613	      0.03733120	     55.34068780	     -1.49466646	     -2.28884909	     86.92932529	      1.51720294	     32.61043634	     -7.72186864	     -7.49999987	     55.49758443	      4.65258676	     -1.64351453	     88.65697799	      1.54735617	     29.20556518	    -21.18610343	     -7.49999987	    -23.90213381	     -0.36792996	      4.62116478	     18.50609148	    -30.69521403	     34.65864080	     56.32757085	     76.29967168	     -1.93748081	    -39.12790546	     17.33023421	     80.92648178	     73.32460726
      7.61666670	     -9.99347189	      2.21292004	      2.04325873	      0.44071651	      0.76424114	      0.04031388	     51.09599361	     -1.39456089	     -3.07653719	     79.76943076	      1.39223921	     31.69447474	     -7.50534134	     -7.49999987	     52.00570939	      4.15494418	     -1.55981637	     83.08347409	      1.45008018	     27.74986513	    -20.06182184	     -7.49999987	    -20.91419570	     -0.41829361	      4.58373095	     14.43938408	    -32.23282782	     35.02132352	     61.76845636	     77.91576312	     -8.08985188	    -40.91854733	     15.98915930	     89.10377743	     75.50205264
